<svg class="w-7 h-7 theme-text fill-current hover:opacity-80" viewBox="0 0 682 682" xmlns="http://www.w3.org/2000/svg"><g fill-rule="evenodd"><path d="M340.614 1.002c187.683 0 339.774 152.315 339.774 340.274 0 187.855-152.09 340.17-339.774 340.17-93.635 0-178.268-37.923-239.726-99.264h239.726c132.641 0 240.553-108.07 240.553-240.906S473.255 100.369 340.614 100.369H100.785C162.242 38.925 246.98 1.002 340.615 1.002"/><path d="M25.259 214.345c-7.642 17.778-14.057 40.54-19.247 68.284a342.451 342.451 0 00-5.069 58.646c0 60.408 15.726 117.086 43.247 166.2l88.255-252.407 92.6 80.095-39.436 112.94-79.91 20.1h234.915c69.941 0 126.743-56.988 126.743-126.928 0-70.045-56.802-126.93-126.743-126.93H25.26z"/></g><path d="M25.259 214.345c-7.642 17.778-14.057 40.54-19.247 68.284a342.451 342.451 0 00-5.069 58.646c0 60.408 15.726 117.086 43.247 166.2l88.255-252.407 92.6 80.095-39.436 112.94-79.91 20.1h234.915c69.941 0 126.743-56.988 126.743-126.928 0-70.045-56.802-126.93-126.743-126.93H25.26z"/></svg>